<?xml version="1.0" encoding="UTF-8" standalone="no"?><svg xmlns="http://www.w3.org/2000/svg" xmlns:xlink="http://www.w3.org/1999/xlink" fill="#000000" height="1168" preserveAspectRatio="xMidYMid meet" version="1" viewBox="0.0 0.0 1111.6 1168.0" width="1111.6" zoomAndPan="magnify"><defs><clipPath id="a"><path d="M 0 0 L 1111.589844 0 L 1111.589844 1168 L 0 1168 Z M 0 0"/></clipPath></defs><g><g id="change1_2"><path d="M 383.886719 237.453125 C 349.828125 254.160156 318.589844 275.875 291.066406 301.628906 L 357.867188 301.628906 C 366.949219 276.859375 375.921875 255.277344 383.886719 237.453125" fill="#636230"/></g><g id="change1_3"><path d="M 223.753906 493.113281 C 223.753906 475.3125 238.101562 460.75 255.636719 460.75 L 313.632812 460.75 C 314.367188 456.867188 315.121094 452.980469 315.910156 449.089844 C 322.730469 415.550781 330.976562 384.191406 339.730469 355.566406 L 243.210938 355.566406 C 201.65625 412.246094 175.003906 480.816406 169.183594 555.253906 L 223.753906 555.433594 L 223.753906 493.113281" fill="#636230"/></g><g id="change1_4"><path d="M 521.300781 460.75 L 521.300781 355.566406 L 397.574219 355.566406 C 387.320312 387.105469 377.542969 422.535156 369.824219 460.75 L 521.300781 460.75" fill="#636230"/></g><g id="change1_5"><path d="M 267.277344 846.417969 C 296.722656 879.257812 331.65625 906.929688 370.570312 927.976562 C 356.964844 901.625 345.210938 874.429688 335.410156 846.417969 L 267.277344 846.417969" fill="#636230"/></g><g id="change1_6"><path d="M 303.953125 712.515625 C 303.109375 705.941406 302.390625 699.328125 301.734375 692.6875 L 255.636719 692.6875 C 238.101562 692.6875 223.753906 678.125 223.753906 660.324219 L 223.753906 609.371094 L 168.660156 609.191406 C 172.558594 676.273438 193.355469 738.816406 226.796875 792.476562 L 319.175781 792.476562 C 312.546875 766.414062 307.441406 739.753906 303.953125 712.515625" fill="#636230"/></g><g id="change1_7"><path d="M 639.441406 210.125 C 618.394531 204.921875 596.671875 201.492188 574.433594 200.011719 L 574.433594 301.628906 L 678.359375 301.628906 C 662.441406 258.085938 647.378906 226.035156 639.441406 210.125" fill="#636230"/></g><g id="change1_8"><path d="M 521.300781 200.183594 C 499.777344 201.769531 478.753906 205.191406 458.363281 210.269531 C 452.867188 220.390625 435.714844 253.183594 416.835938 301.628906 L 521.300781 301.628906 L 521.300781 200.183594" fill="#636230"/></g><g id="change1_9"><path d="M 807.320312 301.628906 C 778.464844 274.628906 745.511719 252.089844 709.519531 235.082031 C 717.40625 253.742188 726.175781 276.117188 734.949219 301.628906 L 807.320312 301.628906" fill="#636230"/></g><g id="change1_10"><path d="M 720.703125 453.105469 C 713.890625 417.957031 705.390625 385.15625 696.398438 355.566406 L 574.433594 355.566406 L 574.433594 460.75 L 722.128906 460.75 C 721.65625 458.203125 721.199219 455.660156 720.703125 453.105469" fill="#636230"/></g><g id="change1_11"><path d="M 590.183594 659.3125 L 590.542969 657.839844 L 605.617188 657.839844 L 634.269531 554.5625 L 662.917969 657.839844 L 677.992188 657.839844 L 678.355469 659.3125 L 678.8125 657.839844 L 695.402344 657.839844 L 721.996094 571.652344 L 748.59375 657.839844 L 765.1875 657.839844 L 765.644531 659.3125 L 766.003906 657.839844 L 781.078125 657.839844 L 824.90625 499.84375 L 782.785156 499.84375 L 763.21875 579.765625 L 738.390625 499.84375 L 722.109375 499.84375 L 721.996094 499.480469 L 721.886719 499.84375 L 705.605469 499.84375 L 680.777344 579.765625 L 661.214844 499.84375 L 607.324219 499.84375 L 587.757812 579.765625 L 562.929688 499.84375 L 546.652344 499.84375 L 546.539062 499.480469 L 546.425781 499.84375 L 530.144531 499.84375 L 505.316406 579.765625 L 485.753906 499.84375 L 431.863281 499.84375 L 412.296875 579.765625 L 387.46875 499.84375 L 371.191406 499.84375 L 371.078125 499.480469 L 370.96875 499.84375 L 354.6875 499.84375 L 329.859375 579.765625 L 310.292969 499.84375 L 268.167969 499.84375 L 311.996094 657.839844 L 327.070312 657.839844 L 327.433594 659.3125 L 327.890625 657.839844 L 344.480469 657.839844 L 371.078125 571.652344 L 397.675781 657.839844 L 414.265625 657.839844 L 414.722656 659.3125 L 415.082031 657.839844 L 430.160156 657.839844 L 458.808594 554.566406 L 487.457031 657.839844 L 502.53125 657.839844 L 502.894531 659.3125 L 503.351562 657.839844 L 519.941406 657.839844 L 546.539062 571.652344 L 573.132812 657.839844 L 589.722656 657.839844 L 590.183594 659.3125" fill="#636230"/></g><g id="change1_12"><path d="M 711.414062 936.335938 C 756.953125 914.507812 797.589844 883.808594 831.109375 846.417969 L 750.902344 846.417969 C 740.007812 877.414062 726.839844 907.417969 711.414062 936.335938" fill="#636230"/></g><g id="change1_13"><path d="M 453.609375 960.851562 C 475.476562 966.605469 498.105469 970.421875 521.300781 972.132812 L 521.300781 846.417969 L 393.84375 846.417969 C 409.351562 886.351562 429.28125 924.519531 453.609375 960.851562" fill="#636230"/></g><g id="change1_14"><path d="M 866.664062 660.324219 C 866.664062 678.125 852.316406 692.6875 834.785156 692.6875 L 785.363281 692.6875 C 784.945312 696.613281 784.5 700.523438 784.019531 704.425781 C 780.3125 734.492188 774.691406 763.847656 767.300781 792.476562 L 871.589844 792.476562 C 904.613281 739.484375 925.308594 677.832031 929.574219 611.699219 L 866.664062 611.488281 L 866.664062 660.324219" fill="#636230"/></g><g clip-path="url(#a)" id="change1_1"><path d="M 549.195312 1027.109375 C 309.6875 1027.109375 114.832031 829.304688 114.832031 586.15625 C 114.832031 343.015625 309.6875 145.199219 549.195312 145.199219 C 788.703125 145.199219 983.558594 343.015625 983.558594 586.15625 C 983.558594 829.304688 788.703125 1027.109375 549.195312 1027.109375 Z M 862.089844 0 L 249.503906 0 C 112.277344 0 0 117.96875 0 262.164062 L 0 905.835938 C 0 1050.019531 112.277344 1168 249.503906 1168 L 862.089844 1168 C 999.316406 1168 1111.589844 1050.019531 1111.589844 905.835938 L 1111.589844 262.164062 C 1111.589844 117.96875 999.316406 0 862.089844 0" fill="#636230"/></g><g id="change1_15"><path d="M 751.917969 355.566406 C 759.472656 381.984375 766.554688 410.585938 772.507812 440.996094 C 773.800781 447.597656 774.988281 454.179688 776.136719 460.75 L 834.785156 460.75 C 852.316406 460.75 866.664062 475.3125 866.664062 493.113281 L 866.664062 557.550781 L 929.394531 557.757812 C 923.980469 482.355469 897.199219 412.882812 855.175781 355.566406 L 751.917969 355.566406" fill="#636230"/></g><g id="change1_16"><path d="M 574.433594 846.417969 L 574.433594 972.304688 C 596.007812 970.867188 617.097656 967.605469 637.554688 962.65625 L 634.785156 960.757812 C 658.964844 924.484375 678.828125 886.339844 694.417969 846.417969 L 574.433594 846.417969" fill="#636230"/></g><g id="change1_17"><path d="M 574.433594 792.476562 L 712.550781 792.476562 C 721.707031 760.257812 728.273438 726.980469 732.238281 692.6875 L 574.433594 692.6875 L 574.433594 792.476562" fill="#636230"/></g><g id="change1_18"><path d="M 375.882812 792.476562 L 521.300781 792.476562 L 521.300781 692.6875 L 356.867188 692.6875 C 360.527344 726.96875 366.867188 760.246094 375.882812 792.476562" fill="#636230"/></g></g></svg>